<svg xmlns="http://www.w3.org/2000/svg" width="157.599" height="118.2" viewBox="0 0 157.599 118.2">
  <path id="Icon_awesome-car" data-name="Icon awesome-car" d="M153.9,38.975H135.473l-5.122-12.8A34.3,34.3,0,0,0,98.345,4.5H59.253A34.31,34.31,0,0,0,27.244,26.17l-5.122,12.8H3.7A3.692,3.692,0,0,0,.113,43.564L1.96,50.952a3.692,3.692,0,0,0,3.583,2.8h6.178a19.562,19.562,0,0,0-6.8,14.775V83.3A19.539,19.539,0,0,0,9.849,96.206V112.85a9.851,9.851,0,0,0,9.85,9.85h9.85a9.851,9.851,0,0,0,9.85-9.85V103h78.8v9.85a9.851,9.851,0,0,0,9.85,9.85h9.85a9.851,9.851,0,0,0,9.85-9.85V96.206A19.527,19.527,0,0,0,152.674,83.3V68.525A19.57,19.57,0,0,0,145.88,53.75h6.178a3.692,3.692,0,0,0,3.583-2.8l1.847-7.387a3.7,3.7,0,0,0-3.586-4.589ZM45.534,33.487A14.776,14.776,0,0,1,59.253,24.2H98.345a14.776,14.776,0,0,1,13.719,9.287L118.2,48.825H39.4l6.135-15.338ZM29.549,83.238c-5.91,0-9.85-3.928-9.85-9.819s3.94-9.819,9.85-9.819,14.775,8.837,14.775,14.729S35.459,83.238,29.549,83.238Zm98.5,0c-5.91,0-14.775.982-14.775-4.91S122.139,63.6,128.049,63.6s9.85,3.928,9.85,9.819-3.94,9.819-9.85,9.819Z" transform="translate(0 -4.5)" fill="#f37720"/>
</svg>
