<svg id="instagram" xmlns="http://www.w3.org/2000/svg" width="52.8" height="52.8" viewBox="0 0 52.8 52.8">
  <path id="Path_13" data-name="Path 13" d="M218.676,212.838A5.838,5.838,0,1,1,212.838,207,5.838,5.838,0,0,1,218.676,212.838Zm0,0" transform="translate(-186.438 -186.438)" fill="#fff"/>
  <path id="Path_14" data-name="Path 14" d="M163.5,139.518a5.8,5.8,0,0,0-3.324-3.324,9.69,9.69,0,0,0-3.252-.6c-1.847-.084-2.4-.1-7.077-.1s-5.231.018-7.077.1a9.7,9.7,0,0,0-3.252.6,5.8,5.8,0,0,0-3.324,3.324,9.694,9.694,0,0,0-.6,3.252c-.084,1.847-.1,2.4-.1,7.077s.018,5.23.1,7.077a9.69,9.69,0,0,0,.6,3.252,5.8,5.8,0,0,0,3.324,3.324,9.678,9.678,0,0,0,3.252.6c1.847.084,2.4.1,7.077.1s5.231-.018,7.077-.1a9.678,9.678,0,0,0,3.252-.6,5.8,5.8,0,0,0,3.324-3.324,9.7,9.7,0,0,0,.6-3.252c.084-1.847.1-2.4.1-7.077s-.018-5.231-.1-7.077A9.679,9.679,0,0,0,163.5,139.518ZM149.843,158.84a8.993,8.993,0,1,1,8.993-8.993A8.993,8.993,0,0,1,149.843,158.84Zm9.349-16.24a2.1,2.1,0,1,1,2.1-2.1A2.1,2.1,0,0,1,159.192,142.6Zm0,0" transform="translate(-123.443 -123.447)" fill="#fff"/>
  <path id="Path_15" data-name="Path 15" d="M26.4,0A26.4,26.4,0,1,0,52.8,26.4,26.4,26.4,0,0,0,26.4,0ZM41.468,32.65a11.122,11.122,0,0,1-.7,3.68,7.751,7.751,0,0,1-4.434,4.434,11.13,11.13,0,0,1-3.679.7c-1.617.074-2.133.091-6.25.091s-4.633-.018-6.25-.091a11.13,11.13,0,0,1-3.679-.7,7.751,7.751,0,0,1-4.434-4.434,11.12,11.12,0,0,1-.7-3.679c-.075-1.617-.092-2.133-.092-6.25s.017-4.633.091-6.25a11.123,11.123,0,0,1,.7-3.68,7.757,7.757,0,0,1,4.434-4.434,11.132,11.132,0,0,1,3.68-.7c1.617-.074,2.133-.091,6.25-.091s4.633.018,6.25.092a11.135,11.135,0,0,1,3.68.7,7.753,7.753,0,0,1,4.434,4.434,11.121,11.121,0,0,1,.7,3.68c.074,1.617.091,2.133.091,6.25S41.542,31.033,41.468,32.65Zm0,0" fill="#fff"/>
</svg>
